<svg width="49" height="20" viewBox="0 0 49 20" fill="none" xmlns="http://www.w3.org/2000/svg">
<path d="M8.95345 2.57328C8.37928 3.25086 7.4606 3.78378 6.54193 3.70765C6.4271 2.79406 6.87878 1.81957 7.40701 1.22573C7.98119 0.532928 8.98407 0.0380662 9.80322 0C9.89509 0.944043 9.51997 1.88047 8.95345 2.57328ZM9.78791 3.88276C8.45584 3.80662 7.31515 4.63647 6.68739 4.63647C6.04431 4.63647 5.07971 3.92082 4.02323 3.94366C2.65287 3.9665 1.38204 4.73544 0.68538 5.96117C-0.753877 8.42025 0.310254 12.0518 1.70358 14.0541C2.38493 15.0438 3.19642 16.1325 4.26821 16.0944C5.28641 16.0563 5.6845 15.4397 6.9094 15.4397C8.14195 15.4397 8.50177 16.0944 9.57355 16.0792C10.6836 16.0563 11.3803 15.0895 12.0616 14.0997C12.8348 12.973 13.1564 11.8843 13.1717 11.8234C13.1487 11.8005 11.0281 10.9935 11.0052 8.55729C10.9822 6.51694 12.6817 5.55006 12.7583 5.48915C11.8013 4.07309 10.3085 3.92082 9.78791 3.88276ZM17.4742 1.12676V15.965H19.7938V10.8946H23.0015C25.9336 10.8946 27.9853 8.89227 27.9853 5.99924C27.9853 3.1062 25.9642 1.12676 23.0781 1.12676H17.4742ZM19.7938 3.06814H22.4656C24.479 3.06814 25.6274 4.13399 25.6274 6.00685C25.6274 7.87971 24.479 8.96079 22.458 8.96079H19.7938V3.06814ZM32.2112 16.0792C33.6658 16.0792 35.0132 15.3483 35.6256 14.1835H35.6716V15.965H37.8151V8.58013C37.8151 6.44081 36.0926 5.0552 33.4438 5.0552C30.9863 5.0552 29.1643 6.45603 29.0954 8.37457H31.1854C31.3615 7.46098 32.2112 6.85954 33.3749 6.85954C34.7912 6.85954 35.5874 7.51428 35.5874 8.72478V9.54701L32.6935 9.72212C30.0064 9.88199 28.5518 10.9783 28.5518 12.8816C28.5595 14.8002 30.06 16.0792 32.2112 16.0792ZM32.839 14.3205C31.6064 14.3205 30.8179 13.7267 30.8179 12.8283C30.8179 11.8919 31.5758 11.3514 33.0227 11.2676L35.595 11.1077V11.9452C35.595 13.3308 34.4084 14.3205 32.839 14.3205ZM40.686 20C42.9444 20 44.0085 19.1397 44.9349 16.5436L49 5.19985H46.6421L43.9167 13.9627H43.8707L41.1453 5.19985H38.7262L42.6458 16.003L42.4315 16.6578C42.0793 17.7693 41.5051 18.2033 40.4793 18.2033C40.2956 18.2033 39.9434 18.1804 39.7979 18.1652V19.9467C39.9357 19.9772 40.5099 20 40.686 20Z" fill="#5C5A5D"/>
</svg>
