<svg width="18" height="22" viewBox="0 0 18 22" fill="none" xmlns="http://www.w3.org/2000/svg">
<path d="M16.5429 3.38992H12.4248V2.06786C12.4248 0.927437 11.4973 0 10.3569 0H7.60767C6.46724 0 5.53981 0.927437 5.53981 2.06786V3.38992H1.37858C0.617257 3.38992 0 4.00717 0 4.76849V20.6214C0 21.3827 0.617257 22 1.37858 22H16.5429C17.3042 22 17.9215 21.3827 17.9215 20.6214V4.76849C17.9215 4.00717 17.3042 3.38992 16.5429 3.38992ZM6.9184 2.06786C6.9184 1.68738 7.2272 1.37858 7.60769 1.37858H10.3569C10.7374 1.37858 11.0462 1.68738 11.0462 2.06786V3.38992H6.9184V2.06786ZM16.5429 20.6214H1.3786V4.76849H5.53983V6.1867C5.53983 6.1867 5.52156 6.87528 6.225 6.87528C7.00045 6.87528 6.91842 6.1867 6.91842 6.1867V4.76849H11.0462V6.1867C11.0462 6.1867 11.0004 6.87875 11.7328 6.87875C12.422 6.87875 12.4248 6.1867 12.4248 6.1867V4.76849H16.5429L16.5429 20.6214Z" fill="black"/>
</svg>
