<svg width="125" height="21" viewBox="0 0 125 21" fill="none" xmlns="http://www.w3.org/2000/svg">
<path d="M17.5 8.96V12.04H2.82801V8.96H17.5ZM5.26401 10.5L3.78001 19.88L2.01601 17.808H18.312V21H7.13766e-06L1.68001 10.5L7.13766e-06 -1.66893e-06H18.172V3.192H2.01601L3.78001 1.12L5.26401 10.5ZM41.6255 18.76L40.1135 18.928V-1.66893e-06H43.6975V21H38.9935L24.2655 2.072L25.7495 1.904V21H22.1655V-1.66893e-06H26.9815L41.6255 18.76ZM65.1602 8.96V12.04H50.4882V8.96H65.1602ZM52.9242 10.5L51.4402 19.88L49.6762 17.808H65.9722V21H47.6602L49.3402 10.5L47.6602 -1.66893e-06H65.8322V3.192H49.6762L51.4402 1.12L52.9242 10.5ZM98.0777 -1.66893e-06V21H94.5497V1.12L95.6977 1.176L85.9257 21H81.9777L72.2057 1.204L73.3537 1.148V21H69.8257V-1.66893e-06H75.4817L84.8897 19.404H83.0417L92.4217 -1.66893e-06H98.0777ZM110.783 21V10.976H114.479V21H110.783ZM100.871 -1.66893e-06H105.043L113.611 10.752H111.623L120.191 -1.66893e-06H124.363L113.807 13.244L111.455 13.272L100.871 -1.66893e-06Z" fill="#0F100B"/>
</svg>
