<svg width="50" height="20" viewBox="0 0 50 20" fill="none" xmlns="http://www.w3.org/2000/svg">
<path d="M35.4421 5.39772C36.8166 5.39772 37.8788 5.77409 38.6911 6.52683C39.5033 7.27948 39.8781 8.28311 39.8781 9.53762V15.5592H38.1287V14.1794H38.0662C37.3165 15.3085 36.2543 15.873 35.0047 15.873C33.9425 15.873 33.0053 15.5593 32.2556 14.9321C31.5683 14.3049 31.1309 13.4267 31.1309 12.4859C31.1309 11.4822 31.5058 10.6667 32.2556 10.0395C33.0053 9.41223 34.0675 9.16134 35.3171 9.16134C36.4417 9.16134 37.3165 9.34958 38.0037 9.7886V9.34958C38.0037 8.76409 37.786 8.1787 37.3506 7.79723L37.2539 7.7187C36.7541 7.27958 36.1293 7.0287 35.4421 7.0287C34.3799 7.0287 33.5676 7.46778 33.0053 8.34595L31.3809 7.34213C32.3805 6.02487 33.6926 5.39772 35.4421 5.39772ZM26.6323 1.13232C27.7534 1.13232 28.8188 1.52399 29.6707 2.25438L29.8188 2.38674C30.6936 3.13948 31.1309 4.2686 31.1309 5.46036C31.1309 6.65213 30.6936 7.7185 29.8188 8.53389C28.9441 9.34928 27.8819 9.7884 26.6323 9.7884L23.6333 9.72566V15.5592H21.7588V1.13232H26.6323ZM35.6919 10.6666C34.9422 10.6666 34.3174 10.8548 33.8176 11.2311C33.3177 11.5447 33.0678 11.9838 33.0678 12.5483C33.0678 13.0502 33.3178 13.4892 33.6926 13.7402C34.13 14.0538 34.6298 14.2419 35.1297 14.2419C35.8294 14.2419 36.5292 13.9687 37.0766 13.4733L37.1915 13.3638C37.8163 12.7993 38.1287 12.1093 38.1287 11.3565C37.5664 10.9175 36.7541 10.6665 35.692 10.6665M26.7574 2.8885H23.6334V7.90683H26.7574C27.4446 7.90683 28.1319 7.65595 28.5693 7.15419C29.5689 6.2133 29.5689 4.64517 28.6318 3.70419L28.5693 3.64144C28.0694 3.13968 27.4446 2.82605 26.7573 2.88879M50 5.71134L43.8145 19.9501H41.94L44.2518 14.9948L40.1905 5.77409H42.1899L45.1265 12.862H45.189L48.0631 5.77409H50V5.71134Z" fill="#5C5A5D"/>
<path d="M16.198 8.47136C16.198 7.90685 16.1355 7.34234 16.073 6.77783H8.26318V9.97685H12.6992C12.5118 10.9804 11.9495 11.9213 11.0748 12.4859V14.5558H13.7614C15.3234 13.1131 16.1981 10.9804 16.1981 8.47146" fill="#5C5A5D"/>
<path d="M8.26309 16.5627C10.5123 16.5627 12.3867 15.81 13.7613 14.5555L11.0747 12.4856C10.3249 12.9873 9.3877 13.301 8.26309 13.301C6.13867 13.301 4.26426 11.8583 3.63945 9.85107H0.89043V11.9837C2.32744 14.8064 5.13906 16.5627 8.26309 16.5627Z" fill="#5C5A5D"/>
<path d="M3.63945 9.8512C3.26465 8.84757 3.26465 7.71855 3.63945 6.65218V4.51953H0.890428C-0.296779 6.84041 -0.296779 9.60032 0.890428 11.9838L3.63945 9.8512Z" fill="#5C5A5D"/>
<path d="M8.26309 3.26513C9.45019 3.26513 10.5748 3.70425 11.4496 4.51964L13.8238 2.13611C12.3242 0.756112 10.3249 -0.0592803 8.32549 0.00336671C5.20146 0.00336671 2.32744 1.75974 0.952831 4.58239L3.70195 6.71503C4.26426 4.70778 6.13867 3.26513 8.26309 3.26513Z" fill="#5C5A5D"/>
</svg>
