<svg width="17" height="17" viewBox="0 0 17 17" fill="none" xmlns="http://www.w3.org/2000/svg">
<path d="M15.7502 15.7502L12.131 12.131M12.131 12.131C12.7501 11.5119 13.2412 10.777 13.5762 9.96813C13.9112 9.15927 14.0837 8.29234 14.0837 7.41684C14.0837 6.54134 13.9112 5.67441 13.5762 4.86555C13.2412 4.05669 12.7501 3.32174 12.131 2.70267C11.5119 2.0836 10.777 1.59252 9.96813 1.25748C9.15927 0.922443 8.29234 0.75 7.41684 0.75C6.54134 0.75 5.67441 0.922443 4.86555 1.25748C4.05669 1.59252 3.32174 2.0836 2.70267 2.70267C1.4524 3.95295 0.75 5.64868 0.75 7.41684C0.75 9.18499 1.4524 10.8807 2.70267 12.131C3.95295 13.3813 5.64868 14.0837 7.41684 14.0837C9.18499 14.0837 10.8807 13.3813 12.131 12.131Z" stroke="#1E1E1E" stroke-opacity="0.6" stroke-width="1.5" stroke-linecap="round" stroke-linejoin="round"/>
</svg>
