<svg width="8" height="5" viewBox="0 0 8 5" fill="none" xmlns="http://www.w3.org/2000/svg">
<path fill-rule="evenodd" clip-rule="evenodd" d="M0.666809 -2.01914e-05C0.534975 7.93046e-06 0.40611 0.0391224 0.296503 0.112378C0.186897 0.185634 0.10147 0.289744 0.0510239 0.411544C0.000576857 0.533343 -0.0126253 0.667365 0.0130867 0.796667C0.0387982 0.925969 0.102269 1.04474 0.195475 1.13798L3.52881 4.47131C3.65383 4.59629 3.82337 4.6665 4.00014 4.6665C4.17692 4.6665 4.34646 4.59629 4.47148 4.47131L7.80481 1.13798C7.89802 1.04475 7.96149 0.92597 7.9872 0.796668C8.01291 0.667366 7.99971 0.533344 7.94926 0.411544C7.89881 0.289744 7.81339 0.185635 7.70378 0.112379C7.59417 0.039123 7.46531 8.53632e-06 7.33348 -1.96086e-05L0.666809 -2.01914e-05Z" fill="#1E1E1E" fill-opacity="0.8"/>
</svg>
