<svg width="46" height="15" viewBox="0 0 46 15" fill="none" xmlns="http://www.w3.org/2000/svg">
<path d="M17.4647 0.267063L11.4425 14.7736H7.51333L4.55017 3.19507C4.37 2.48291 4.21475 2.22165 3.66658 1.92169C2.77342 1.43207 1.29758 0.973424 0 0.687009L0.0881667 0.267063H6.41317C6.82649 0.266645 7.22635 0.415427 7.54057 0.686553C7.85478 0.95768 8.06266 1.33329 8.12667 1.74558L9.69258 10.1406L13.5604 0.267063H17.4647ZM32.8613 10.0381C32.8766 6.20823 27.6173 5.99729 27.6537 4.28654C27.6652 3.76597 28.1558 3.21249 29.2292 3.07122C30.4871 2.9506 31.7539 3.17525 32.8957 3.72146L33.5474 0.644433C32.4358 0.222165 31.2583 0.00392186 30.0706 0C26.3963 0 23.8107 1.97394 23.7878 4.79745C23.7647 6.88556 25.6335 8.04864 27.0422 8.74532C28.4912 9.45555 28.9781 9.91227 28.9704 10.547C28.9608 11.5224 27.8166 11.9501 26.7471 11.9675C24.8783 11.9965 23.7954 11.4585 22.9291 11.0521L22.2563 14.2298C23.1246 14.6323 24.7269 14.9845 26.3887 15C30.2929 15 32.8478 13.0532 32.8613 10.0381ZM42.5615 14.7736H46L43.0004 0.267063H39.8264C39.4871 0.263094 39.1545 0.362551 38.8721 0.55244C38.5896 0.742329 38.3705 1.01382 38.2432 1.33144L32.6677 14.7736H36.57L37.3462 12.6061H42.1149L42.5615 14.7736ZM38.4157 9.6336L40.3708 4.18591L41.4977 9.6336H38.4157ZM22.7758 0.267063L19.7033 14.7736H15.985L19.0612 0.267063H22.7758Z" fill="#5C5A5D"/>
</svg>
